<?xml version="1.0" encoding="UTF-8" standalone="no"?>
<!DOCTYPE svg PUBLIC "-//W3C//DTD SVG 1.1//EN" "http://www.w3.org/Graphics/SVG/1.1/DTD/svg11.dtd">
<svg width="100%" height="100%" viewBox="0 0 512 512" version="1.1" xmlns="http://www.w3.org/2000/svg" xmlns:xlink="http://www.w3.org/1999/xlink" xml:space="preserve" xmlns:serif="http://www.serif.com/" style="fill-rule:evenodd;clip-rule:evenodd;stroke-linejoin:round;stroke-miterlimit:2;">
    <path d="M56.636,169.45L20.903,169.45C9.98,169.45 1.111,160.582 1.111,149.658C1.111,138.735 9.98,129.867 20.903,129.867L56.636,129.867L56.636,126.949C56.636,88.142 88.142,56.636 126.949,56.636L129.855,56.636L129.855,20.878C129.855,9.954 138.724,1.086 149.647,1.086C160.57,1.086 169.439,9.954 169.439,20.878L169.439,56.636L236.222,56.636L236.222,20.878C236.222,9.954 245.09,1.086 256.014,1.086C266.937,1.086 275.805,9.954 275.805,20.878L275.805,56.636L342.589,56.636L342.589,20.928C342.589,10.005 351.457,1.137 362.38,1.137C373.304,1.137 382.172,10.005 382.172,20.928L382.172,56.636L385.051,56.636C423.858,56.636 455.364,88.142 455.364,126.949L455.364,129.867L491.097,129.867C502.02,129.867 510.889,138.735 510.889,149.658C510.889,160.582 502.02,169.45 491.097,169.45L455.364,169.45L455.364,236.234L491.097,236.234C502.02,236.234 510.889,245.102 510.889,256.025C510.889,266.949 502.02,275.817 491.097,275.817L455.364,275.817L455.364,342.6L491.097,342.6C502.02,342.6 510.889,351.469 510.889,362.392C510.889,373.315 502.02,382.184 491.097,382.184L455.364,382.184L455.364,385.051C455.364,423.858 423.858,455.364 385.051,455.364L382.172,455.364L382.172,491.122C382.172,502.046 373.304,510.914 362.38,510.914C351.457,510.914 342.589,502.046 342.589,491.122L342.589,455.364L275.805,455.364L275.805,491.072C275.805,501.995 266.937,510.863 256.014,510.863C245.09,510.863 236.222,501.995 236.222,491.072L236.222,455.364L169.439,455.364L169.439,491.072C169.439,501.995 160.57,510.863 149.647,510.863C138.724,510.863 129.855,501.995 129.855,491.072L129.855,455.364L126.949,455.364C88.142,455.364 56.636,423.858 56.636,385.051L56.636,382.184L20.903,382.184C9.98,382.184 1.111,373.315 1.111,362.392C1.111,351.469 9.98,342.6 20.903,342.6L56.636,342.6L56.636,275.817L20.903,275.817C9.98,275.817 1.111,266.949 1.111,256.025C1.111,245.102 9.98,236.234 20.903,236.234L56.636,236.234L56.636,169.45ZM257.8,310.473C258.755,312.793 259.898,315.472 261.229,318.509C262.56,321.546 263.805,323.798 264.965,325.265C266.125,326.732 267.558,327.892 269.265,328.745C270.971,329.598 273.018,330.025 275.407,330.025C279.501,330.025 282.999,328.575 285.899,325.674C288.799,322.774 290.25,319.584 290.25,316.103C290.25,312.759 288.714,307.402 285.643,300.032L246.437,203.194C244.594,198.348 243.076,194.475 241.882,191.575C240.687,188.675 239.22,185.962 237.48,183.437C235.74,180.912 233.454,178.848 230.621,177.244C227.789,175.64 224.258,174.838 220.027,174.838C215.864,174.838 212.366,175.64 209.534,177.244C206.702,178.848 204.416,180.946 202.676,183.539C200.935,186.133 199.298,189.391 197.762,193.315C196.227,197.239 194.913,200.6 193.821,203.398L155.434,300.851C153.864,304.741 152.738,307.777 152.056,309.961C151.373,312.145 151.032,314.261 151.032,316.308C151.032,319.857 152.499,323.03 155.434,325.828C158.368,328.626 161.746,330.025 165.568,330.025C170.072,330.025 173.314,328.711 175.293,326.084C177.272,323.456 179.66,318.389 182.458,310.882L189.624,291.638L250.634,291.638L257.8,310.473ZM197.608,268.81L219.822,206.879L242.445,268.81L197.608,268.81ZM322.18,311.497C322.18,317.639 323.596,322.262 326.428,325.367C329.26,328.472 332.86,330.025 337.227,330.025C341.8,330.025 345.502,328.489 348.334,325.418C351.166,322.347 352.582,317.707 352.582,311.497L352.582,193.264C352.582,187.054 351.166,182.43 348.334,179.394C345.502,176.357 341.8,174.838 337.227,174.838C332.791,174.838 329.175,176.374 326.377,179.445C323.579,182.516 322.18,187.122 322.18,193.264L322.18,311.497Z"/>
</svg>
