<?xml version="1.0" encoding="UTF-8" standalone="no"?>
<!DOCTYPE svg PUBLIC "-//W3C//DTD SVG 1.1//EN" "http://www.w3.org/Graphics/SVG/1.1/DTD/svg11.dtd">
<svg width="100%" height="100%" viewBox="0 0 100 100" version="1.1" xmlns="http://www.w3.org/2000/svg" xmlns:xlink="http://www.w3.org/1999/xlink" xml:space="preserve" xmlns:serif="http://www.serif.com/" style="fill-rule:evenodd;clip-rule:evenodd;stroke-linejoin:round;stroke-miterlimit:2;">
    <g transform="matrix(0.195312,0,0,0.195312,0,0)">
        <path d="M120.72,89.856C153.315,89.856 179.777,120.665 179.777,158.614C179.777,196.563 153.315,227.373 120.72,227.373C88.126,227.373 61.664,196.563 61.664,158.614C61.664,120.665 88.126,89.856 120.72,89.856ZM379.847,89.794C438.815,89.794 486.689,134.189 486.689,188.871C486.689,243.552 438.815,287.947 379.847,287.947C320.879,287.947 273.004,243.552 273.004,188.871C273.004,134.189 320.879,89.794 379.847,89.794ZM186.691,361.305C221.971,361.305 250.614,378.362 250.614,399.372C250.614,420.382 221.971,437.439 186.691,437.439C151.41,437.439 122.767,420.382 122.767,399.372C122.767,378.362 151.41,361.305 186.691,361.305Z" style="fill:#942828;"/>
    </g>
</svg>
