<?xml version="1.0" encoding="UTF-8" standalone="no"?>
<!DOCTYPE svg PUBLIC "-//W3C//DTD SVG 1.1//EN" "http://www.w3.org/Graphics/SVG/1.1/DTD/svg11.dtd">
<svg width="100%" height="100%" viewBox="0 0 100 100" version="1.1" xmlns="http://www.w3.org/2000/svg" xmlns:xlink="http://www.w3.org/1999/xlink" xml:space="preserve" xmlns:serif="http://www.serif.com/" style="fill-rule:evenodd;clip-rule:evenodd;stroke-linecap:round;stroke-linejoin:round;stroke-miterlimit:1.5;">
    <path d="M49.018,77.118L9.198,59.929L9.198,80.873L49.018,98.063L49.018,77.118Z" style="stroke:black;stroke-width:6.25px;"/>
    <path d="M86.771,7.901C86.771,3.54 83.231,0 78.87,0L21.13,0C16.769,0 13.229,3.54 13.229,7.901L13.229,23.703C13.229,28.064 16.769,31.604 21.13,31.604L78.87,31.604C83.231,31.604 86.771,28.064 86.771,23.703L86.771,7.901Z"/>
    <path d="M92.746,64.567L53.023,47.491L9.198,59.442L48.921,76.517L92.746,64.567Z" style="fill:none;stroke:black;stroke-opacity:0.57;stroke-width:6.25px;"/>
    <g>
        <path d="M71.344,45.428C72.224,45.127 73.196,45.449 73.722,46.216C73.729,46.223 73.735,46.232 73.741,46.241C74.107,46.774 74.203,47.447 74,48.061C73.798,48.674 73.321,49.159 72.71,49.37C65.375,51.842 57.52,53.184 49.355,53.184C41.692,53.184 34.303,52.002 27.361,49.81C26.74,49.609 26.251,49.127 26.041,48.51C25.83,47.892 25.923,47.212 26.292,46.674C26.296,46.663 26.302,46.654 26.308,46.646C26.825,45.891 27.776,45.565 28.648,45.845C35.184,47.906 42.141,49.017 49.355,49.017C57.042,49.017 64.437,47.756 71.344,45.428Z"/>
        <path d="M69.627,40.238C69.999,40.779 70.091,41.465 69.876,42.085C69.661,42.705 69.164,43.187 68.537,43.382C62.464,45.219 56.024,46.209 49.355,46.209C43.193,46.209 37.226,45.364 31.566,43.783C30.928,43.6 30.418,43.122 30.193,42.497C29.969,41.873 30.058,41.179 30.433,40.632C30.438,40.619 30.445,40.609 30.453,40.598C30.955,39.865 31.868,39.536 32.723,39.778C38.016,41.254 43.594,42.042 49.355,42.042C55.591,42.042 61.613,41.118 67.291,39.4C68.155,39.134 69.092,39.461 69.604,40.207C69.612,40.216 69.62,40.227 69.627,40.238Z"/>
        <path d="M65.136,33.684C65.519,34.242 65.606,34.952 65.371,35.587C65.135,36.222 64.606,36.703 63.951,36.877C59.283,38.07 54.393,38.708 49.355,38.708C44.832,38.708 40.428,38.194 36.198,37.222C35.531,37.063 34.985,36.587 34.739,35.947C34.492,35.308 34.576,34.588 34.963,34.023C34.961,34.019 34.962,34.017 34.964,34.015C35.45,33.307 36.321,32.969 37.158,33.166C41.079,34.066 45.162,34.541 49.355,34.541C54.025,34.541 58.559,33.951 62.886,32.842C63.736,32.62 64.634,32.955 65.13,33.679C65.133,33.68 65.134,33.682 65.136,33.684Z"/>
    </g>
    <path d="M92.709,64.672L49.018,76.57L49.018,98.063L92.709,86.164L92.709,64.672Z" style="fill:none;stroke:black;stroke-width:6.25px;"/>
</svg>
