<?xml version="1.0" encoding="UTF-8" standalone="no"?>
<!DOCTYPE svg PUBLIC "-//W3C//DTD SVG 1.1//EN" "http://www.w3.org/Graphics/SVG/1.1/DTD/svg11.dtd">
<svg width="100%" height="100%" viewBox="0 0 1147 374" version="1.1" xmlns="http://www.w3.org/2000/svg" xmlns:xlink="http://www.w3.org/1999/xlink" xml:space="preserve" xmlns:serif="http://www.serif.com/" style="fill-rule:evenodd;clip-rule:evenodd;stroke-linejoin:round;stroke-miterlimit:2;">
    <g transform="matrix(1,0,0,1,-66.6968,-84.4555)">
        <g transform="matrix(2.32853e-16,3.80278,-3.80278,2.32853e-16,1231.58,-580.313)">
            <g>
                <g transform="matrix(0.989316,-6.16298e-32,6.16298e-32,0.989316,100.044,-0.189374)">
                    <path d="M158.503,30.751C161.71,34.302 164.832,39.19 167.013,45.007C167.946,47.493 168.686,50.15 169.196,52.954C169.669,55.552 169.945,58.274 169.91,61.111C170.034,67.037 168.875,72.443 167.087,77.203C164.909,82.999 161.814,87.855 158.567,91.383C158.026,91.927 158.029,92.808 158.573,93.349C159.117,93.89 159.998,93.887 160.539,93.343C164.331,89.81 168.154,84.87 170.892,78.763C172.537,75.092 173.779,71.001 174.379,66.569C174.618,64.803 174.728,62.98 174.744,61.111C174.706,57.947 174.368,54.91 173.727,52.037C173.043,48.97 172.053,46.088 170.844,43.422C168.077,37.319 164.241,32.354 160.491,28.808C159.954,28.259 159.074,28.249 158.525,28.786C157.976,29.322 157.966,30.203 158.503,30.751Z" style="fill:rgb(65,119,180);"/>
                </g>
                <g transform="matrix(0.870863,-7.39557e-32,7.39557e-32,0.870863,109.603,7.09803)">
                    <path d="M162.264,33.327C164.858,36.449 167.534,40.998 169.399,46.524C170.156,48.769 170.753,51.175 171.169,53.723C171.549,56.052 171.779,58.496 171.734,61.051C171.806,64.128 171.478,67.066 170.93,69.836C170.53,71.851 170.033,73.777 169.426,75.596C167.544,81.241 164.824,85.851 162.336,88.813C161.909,89.266 161.931,89.98 162.384,90.407C162.837,90.834 163.551,90.812 163.978,90.359C167.005,87.49 170.567,82.922 173.185,77.064C174.664,73.752 175.818,70.036 176.399,66.02C176.632,64.409 176.736,62.749 176.762,61.051C176.71,58.172 176.413,55.416 175.832,52.821C175.206,50.024 174.309,47.413 173.223,45.016C170.628,39.287 167.086,34.799 163.911,31.786C163.485,31.332 162.771,31.308 162.317,31.733C161.863,32.159 161.839,32.873 162.264,33.327Z" style="fill:rgb(65,119,180);"/>
                </g>
                <g transform="matrix(0.753147,-4.93038e-32,4.93038e-32,0.753147,119.104,14.3401)">
                    <path d="M167.102,36.5C168.625,38.426 171.173,42.623 172.927,48.288C173.529,50.232 174.01,52.343 174.352,54.607C174.656,56.621 174.851,58.751 174.801,60.992C174.999,65.846 174.182,70.07 173.043,73.678C171.333,79.091 168.891,83.121 167.223,85.498C166.886,85.911 166.948,86.519 167.36,86.855C167.773,87.192 168.381,87.13 168.717,86.717C170.854,84.454 174.198,80.613 176.699,75.064C177.968,72.248 178.989,69.005 179.512,65.346C179.71,63.954 179.795,62.5 179.825,60.992C179.768,58.432 179.504,55.998 178.988,53.73C178.419,51.232 177.615,48.933 176.67,46.862C174.008,41.021 170.464,37.006 168.521,35.193C168.16,34.802 167.549,34.777 167.158,35.137C166.767,35.498 166.742,36.109 167.102,36.5Z" style="fill:rgb(65,119,180);"/>
                </g>
                <g transform="matrix(1.02233e-16,-1.66959,1.42197,8.70703e-17,-2564.24,844.249)">
                    <path d="M462.683,1968.39C463.824,1970.04 466.496,1971.2 469.608,1971.2C472.72,1971.2 475.393,1970.04 476.534,1968.39C475.393,1966.74 472.72,1965.59 469.608,1965.59C466.496,1965.59 463.824,1966.74 462.683,1968.39ZM469.608,1970.17C469.617,1970.17 469.623,1970.17 469.623,1970.18C469.623,1970.18 469.617,1970.19 469.608,1970.19C469.6,1970.19 469.593,1970.18 469.593,1970.18C469.593,1970.17 469.6,1970.17 469.608,1970.17ZM469.608,1966.6C469.617,1966.6 469.623,1966.6 469.623,1966.61C469.623,1966.61 469.617,1966.62 469.608,1966.62C469.6,1966.62 469.593,1966.61 469.593,1966.61C469.593,1966.6 469.6,1966.6 469.608,1966.6Z" style="fill:rgb(65,119,180);"/>
                </g>
                <g transform="matrix(5.73901e-17,-0.937251,0.937251,5.73901e-17,139.535,194.965)">
                    <path d="M143.748,48.966L169.837,112.691C170.913,115.317 173.918,116.576 176.544,115.501C179.17,114.426 180.429,111.421 179.354,108.795C179.354,108.795 161.089,64.182 152.675,43.628C151.193,40.008 147.671,37.642 143.759,37.638C139.848,37.634 136.321,39.994 134.832,43.61C126.369,64.163 107.991,108.799 107.991,108.799C106.91,111.423 108.163,114.431 110.787,115.511C113.412,116.592 116.419,115.338 117.5,112.714L143.748,48.966Z" style="fill:rgb(65,119,180);"/>
                </g>
                <g transform="matrix(7.86887e-17,-1.28508,1.28508,7.86887e-17,-616.842,1266.08)">
                    <g transform="matrix(83.1222,0,0,83.1222,988.09,671.849)">
                    </g>
                    <text x="967.716px" y="671.849px" style="font-family:'SFCompactRounded-Regular', 'SF Compact Rounded';font-size:83.122px;fill:rgb(65,119,180);">I</text>
                </g>
            </g>
        </g>
        <g transform="matrix(5.64179,-6.95405e-32,6.95405e-32,5.64179,-108.705,39.0373)">
            <g transform="matrix(72,0,0,72,167.496,56.5356)">
            </g>
            <text x="28.418px" y="56.536px" style="font-family:'SFProRounded-Light', 'SF Pro Rounded';font-weight:300;font-size:72px;fill:rgb(35,44,62);">sens</text>
        </g>
    </g>
</svg>
